<?xml version="1.0" encoding="UTF-8" standalone="no"?>
<svg
   id="Layer_1"
   version="1.1"
   viewBox="0 0 511.99999 522"
   width="512"
   height="522"
   xmlns="http://www.w3.org/2000/svg"
   xmlns:svg="http://www.w3.org/2000/svg">
  <!-- Generator: Adobe Illustrator 29.5.1, SVG Export Plug-In . SVG Version: 2.1.0 Build 141)  -->
  <defs
     id="defs503">
    <style
       id="style479">
      .st0 {
        fill: none;
      }

      .st1 {
        fill: url(#radial-gradient);
      }

      .st2 {
        fill: url(#linear-gradient);
      }

      .st3 {
        fill: #fc4c53;
      }

      .st4 {
        fill: url(#radial-gradient1);
      }

      .st5 {
        clip-path: url(#clippath);
      }
    </style>
    <clipPath
       id="clippath">
      <path
         class="st0"
         d="M 22.36,10 H 12 v 4.26 h 5.92 c -0.26,1.37 -1.04,2.53 -2.21,3.31 -0.98,0.66 -2.23,1.06 -3.71,1.06 -2.86,0 -5.29,-1.93 -6.16,-4.53 H 5.827 c 0,0 0.013,-0.0099 0.013,-0.0099 -0.22,-0.66 -0.35,-1.36 -0.35,-2.09 0,-0.73 0.13,-1.43 0.35,-2.09 0.87,-2.6 3.3,-4.53 6.16,-4.53 1.62,0 3.06,0.56 4.21,1.64 l 3.15,-3.15 C 17.45,2.0901 14.97,1.0001 12,1.0001 7.7,1 3.99,3.47 2.18,7.07 1.43,8.55 1,10.22 1,12 c 0,1.78 0.43,3.45 1.18,4.93 v 0.01 C 3.99,20.53 7.7,23 12,23 c 2.97,0 5.46,-0.98 7.28,-2.66 2.08,-1.92 3.28,-4.7401 3.28,-8.09 0,-0.78 -0.07,-1.53 -0.2,-2.25 z"
         id="path481" />
    </clipPath>
    <radialGradient
       id="radial-gradient"
       cx="1.4787"
       cy="12.7883"
       fx="1.4787"
       fy="12.7883"
       r="9.6555004"
       gradientTransform="matrix(0.8032,0,0,1.0842,2.4587,-0.293)"
       gradientUnits="userSpaceOnUse">
      <stop
         offset=".368"
         stop-color="#ffcf09"
         id="stop484" />
      <stop
         offset=".7176"
         stop-color="#ffcf09"
         stop-opacity=".7"
         id="stop486" />
      <stop
         offset="1"
         stop-color="#ffcf09"
         stop-opacity="0"
         id="stop488" />
    </radialGradient>
    <radialGradient
       id="radial-gradient1"
       cx="14.2953"
       cy="23.290899"
       fx="14.2953"
       fy="23.290899"
       r="11.8784"
       gradientTransform="matrix(1.3272,0,0,1.0073,-3.434,-0.6716)"
       gradientUnits="userSpaceOnUse">
      <stop
         offset=".3827"
         stop-color="#34a853"
         id="stop491" />
      <stop
         offset=".7062"
         stop-color="#34a853"
         stop-opacity=".7"
         id="stop493" />
      <stop
         offset="1"
         stop-color="#34a853"
         stop-opacity="0"
         id="stop495" />
    </radialGradient>
    <linearGradient
       id="linear-gradient"
       x1="23.558201"
       y1="6.2863998"
       x2="12.1477"
       y2="20.299299"
       gradientUnits="userSpaceOnUse">
      <stop
         offset=".6711"
         stop-color="#4285f4"
         id="stop498" />
      <stop
         offset=".8852"
         stop-color="#4285f4"
         stop-opacity="0"
         id="stop500" />
    </linearGradient>
  </defs>
  <path
     class="st3"
     d="M 507.25044,213.54413 H 261.22447 v 101.07868 h 140.58627 c -6.1744,32.50651 -24.69759,60.03027 -52.48238,78.53762 -23.27272,15.66007 -52.95732,25.15102 -88.10389,25.15102 -67.91835,0 -125.62521,-45.79384 -146.28569,-107.48502 h -0.30872 c 0,0 0.30872,-0.2349 0.30872,-0.2349 -5.22449,-15.66007 -8.31169,-32.26924 -8.31169,-49.59022 0,-17.32101 3.0872,-33.9302 8.31169,-49.59027 20.66048,-61.69118 78.36734,-107.48502 146.28569,-107.48502 38.47124,0 72.6679,13.28733 99.97773,38.9129 L 436.0074,68.097676 C 390.64933,25.862942 331.75508,9.8321276e-5 261.22447,9.8321276e-5 159.10946,-0.00227427 71.005568,58.604352 28.022266,144.02292 10.211505,179.13944 2.2747681e-6,218.76416 2.2747681e-6,260.99893 2.2747681e-6,303.23367 10.211505,342.85839 28.022266,377.97491 v 0.23727 C 71.005568,463.39347 159.10946,522.0001 261.22447,522.0001 c 70.53061,0 129.66234,-23.25283 172.88312,-63.11483 49.39517,-45.55657 77.89239,-112.47015 77.89239,-191.95449 0,-18.50736 -1.66234,-36.30293 -4.74954,-53.38665 z"
     id="path505"
     style="stroke-width:23.7375" />
  <g
     class="st5"
     clip-path="url(#clippath)"
     id="g513"
     transform="matrix(23.747681,0,0,23.727379,-23.747681,-23.729652)">
    <path
       id="ellipse507"
       style="fill:url(#radial-gradient)"
       class="st1"
       d="M 11.4013,13.5725 A 7.7549,10.4689 0 0 1 3.6464,24.0414 7.7549,10.4689 0 0 1 -4.1085,13.5725 7.7549,10.4689 0 0 1 3.6464,3.1036005 7.7549,10.4689 0 0 1 11.4013,13.5725 Z" />
    <path
       id="ellipse509"
       style="fill:url(#radial-gradient1)"
       class="st4"
       transform="rotate(-7.1197,15.538506,22.788856)"
       d="M 31.302899,22.788601 A 15.7646,11.9647 0 0 1 15.5383,34.753301 15.7646,11.9647 0 0 1 -0.22630024,22.788601 15.7646,11.9647 0 0 1 15.5383,10.823901 a 15.7646,11.9647 0 0 1 15.764599,11.9647 z" />
    <polygon
       class="st2"
       points="11.5957,13.8759 12.2191,17.6234 19.5807,24.4713 28.1881,8.5742 11.1048,8.2797 "
       id="polygon511"
       style="fill:url(#linear-gradient)" />
  </g>
</svg>
