<svg width="318" height="130" viewBox="0 0 318 130" fill="none" xmlns="http://www.w3.org/2000/svg">
<path d="M32.328 88.696C34.4613 88.0987 35.9973 87.544 36.936 87.032C37.8747 86.4347 38.5147 85.6667 38.856 84.728C39.1973 83.7893 39.368 82.3387 39.368 80.376V45.688C39.368 42.7013 39.112 40.5253 38.6 39.16C38.1733 37.7947 37.1067 36.6 35.4 35.576L33.864 34.68L34.376 33.016C37.192 32.1627 40.6907 31.48 44.872 30.968C49.0533 30.3707 52.8933 30.072 56.392 30.072C67.2293 30.072 75.464 32.76 81.096 38.136C86.8133 43.4267 89.672 51.1067 89.672 61.176C89.672 70.3067 87.0267 77.56 81.736 82.936C76.5307 88.312 69.4053 91 60.36 91H33.224L32.328 88.696ZM59.208 88.44C70.728 88.44 76.488 79.352 76.488 61.176C76.488 52.8133 74.824 46.1147 71.496 41.08C68.2533 35.96 63.944 33.4 58.568 33.4C56.3493 33.4 54.6427 33.7413 53.448 34.424C52.2533 35.1067 51.656 36.088 51.656 37.368V76.536C51.656 80.5467 52.2533 83.5333 53.448 85.496C54.728 87.4587 56.648 88.44 59.208 88.44ZM95.319 70.392C95.319 63.6507 97.239 58.3173 101.079 54.392C105.004 50.4667 110.295 48.504 116.951 48.504C123.607 48.504 128.898 50.5093 132.823 54.52C136.748 58.4453 138.711 63.736 138.711 70.392C138.711 77.048 136.748 82.3387 132.823 86.264C128.898 90.1893 123.607 92.152 116.951 92.152C110.295 92.152 105.004 90.1893 101.079 86.264C97.239 82.3387 95.319 77.048 95.319 70.392ZM125.783 70.648C125.783 64.9307 124.972 60.28 123.351 56.696C121.73 53.0267 119.682 51.192 117.207 51.192C114.476 51.192 112.258 52.984 110.551 56.568C108.844 60.0667 107.991 64.6747 107.991 70.392C107.991 76.1947 108.759 80.8027 110.295 84.216C111.916 87.6293 114.05 89.336 116.695 89.336C119.34 89.336 121.516 87.6293 123.223 84.216C124.93 80.7173 125.783 76.1947 125.783 70.648ZM188.729 87.16C187.278 88.952 185.657 90.232 183.865 91C182.073 91.768 180.025 92.152 177.721 92.152C175.076 92.152 172.9 91.512 171.193 90.232C169.572 88.952 167.908 86.6907 166.201 83.448L161.465 74.744C157.881 79.352 156.089 82.5947 156.089 84.472C156.089 85.6667 156.558 86.9893 157.497 88.44L158.393 89.72L157.369 91H143.929L143.161 88.952L159.929 72.056L151.097 55.8C150.073 53.9227 148.836 52.984 147.385 52.984C146.19 52.984 144.825 53.5387 143.289 54.648L142.393 53.24C143.929 51.5333 145.55 50.3387 147.257 49.656C149.049 48.888 151.054 48.504 153.273 48.504C156.004 48.504 158.18 49.144 159.801 50.424C161.508 51.704 163.129 53.9653 164.665 57.208L169.017 65.272C172.26 61.176 173.881 58.1467 173.881 56.184C173.881 54.904 173.454 53.5387 172.601 52.088L171.577 50.936L172.601 49.656H186.169L186.937 51.704L170.553 68.088L179.769 84.984C180.793 86.8613 182.03 87.8 183.481 87.8C184.761 87.8 186.126 87.16 187.577 85.88L188.729 87.16ZM235.604 87.16C234.153 88.952 232.532 90.232 230.74 91C228.948 91.768 226.9 92.152 224.596 92.152C221.951 92.152 219.775 91.512 218.068 90.232C216.447 88.952 214.783 86.6907 213.076 83.448L208.34 74.744C204.756 79.352 202.964 82.5947 202.964 84.472C202.964 85.6667 203.433 86.9893 204.372 88.44L205.268 89.72L204.244 91H190.804L190.036 88.952L206.804 72.056L197.972 55.8C196.948 53.9227 195.711 52.984 194.26 52.984C193.065 52.984 191.7 53.5387 190.164 54.648L189.268 53.24C190.804 51.5333 192.425 50.3387 194.132 49.656C195.924 48.888 197.929 48.504 200.148 48.504C202.879 48.504 205.055 49.144 206.676 50.424C208.383 51.704 210.004 53.9653 211.54 57.208L215.892 65.272C219.135 61.176 220.756 58.1467 220.756 56.184C220.756 54.904 220.329 53.5387 219.476 52.088L218.452 50.936L219.476 49.656H233.044L233.812 51.704L217.428 68.088L226.644 84.984C227.668 86.8613 228.905 87.8 230.356 87.8C231.636 87.8 233.001 87.16 234.452 85.88L235.604 87.16ZM280.175 48.76V91C280.175 97.7413 278.212 102.947 274.287 106.616C270.447 110.371 265.071 112.248 258.159 112.248C253.892 112.248 250.436 111.437 247.791 109.816C245.146 108.195 243.823 106.061 243.823 103.416C243.823 101.112 244.506 99.2347 245.871 97.784C247.236 96.4187 249.028 95.736 251.247 95.736C252.868 95.736 254.447 96.0773 255.983 96.76C254.447 98.296 253.679 100.387 253.679 103.032C253.679 104.909 254.234 106.445 255.343 107.64C256.538 108.835 258.031 109.432 259.823 109.432C265.796 109.432 268.783 104.568 268.783 94.84V78.584C267.674 81.8267 265.711 84.5147 262.895 86.648C260.164 88.696 257.22 89.72 254.063 89.72C250.308 89.72 247.535 88.568 245.743 86.264C243.951 83.96 243.055 80.4613 243.055 75.768V56.696C243.055 55.5013 242.5 54.904 241.391 54.904H237.423L237.039 53.496C238.66 52.0453 240.794 50.8507 243.439 49.912C246.084 48.9733 248.602 48.504 250.991 48.504C252.1 48.504 252.954 48.76 253.551 49.272C254.234 49.784 254.575 50.4667 254.575 51.32V77.176C254.575 81.9547 256.068 84.344 259.055 84.344C261.956 84.344 264.303 82.5947 266.095 79.096C267.887 75.5973 268.783 70.9467 268.783 65.144C268.783 62.072 268.527 59.5547 268.015 57.592C267.503 55.6293 266.692 53.9227 265.583 52.472L264.559 51.064L265.455 49.912L280.175 48.76Z" fill="url(#paint0_linear_225_228)"/>
<defs>
<linearGradient id="paint0_linear_225_228" x1="158.5" y1="15" x2="158.5" y2="115" gradientUnits="userSpaceOnUse">
<stop stop-color="#1f8fff"/>
<stop offset="1" stop-color="#1f8fff"/>
</linearGradient>
</defs>
</svg>
