<svg viewBox="0 0 94 94" fill="none" xmlns="http://www.w3.org/2000/svg">
    <path d="M80.2501 60.5C80.2551 56.5013 79.5122 52.537 78.0598 48.8115C75.0547 54.6427 70.4691 59.5103 64.8275 62.8577C59.1858 66.2051 52.7159 67.897 46.1578 67.74C39.5997 67.5829 33.2182 65.5833 27.7432 61.9697C22.2682 58.3561 17.9209 53.2745 15.1983 47.3062C13.2486 42.9649 12.2436 38.2589 12.2501 33.5C12.2582 27.7655 13.7121 22.1256 16.4773 17.1018C19.2425 12.0779 23.2298 7.83245 28.0704 4.75781C18.5478 9.03267 10.7505 16.4017 5.94505 25.6679C1.13962 34.934 -0.391533 45.5527 1.60034 55.799C3.59221 66.0453 8.99008 75.317 16.917 82.108C24.8439 88.8989 34.8342 92.8101 45.2647 93.206L45.3722 93.21C46.4542 93.25 47.546 93.25 48.628 93.21L48.7273 93.2064C57.1753 92.8427 65.1599 89.2441 71.0279 83.1558C76.8959 77.0675 80.1979 68.9557 80.2501 60.5Z" fill="url(#paint0_linear_218_231)"/>
    <path d="M48.7354 0.793714L48.628 0.789766C47.546 0.749766 46.4541 0.749766 45.3721 0.789766L45.2729 0.793365C36.8248 1.15705 28.8402 4.7556 22.9722 10.8439C17.1042 16.9323 13.8022 25.0441 13.75 33.4998C13.745 37.4984 14.4879 41.4627 15.9403 45.1883C18.9454 39.3571 23.531 34.4894 29.1727 31.1421C34.8143 27.7947 41.2842 26.1027 47.8423 26.2598C54.4004 26.4168 60.7819 28.4165 66.2569 32.0301C71.7319 35.6437 76.0792 40.7253 78.8018 46.6936C80.7515 51.0348 81.7565 55.7408 81.75 60.4998C81.7419 66.2343 80.288 71.8742 77.5228 76.898C74.7576 81.9218 70.7703 86.1673 65.9297 89.242C75.4523 84.9671 83.2496 77.598 88.0551 68.3319C92.8605 59.0658 94.3916 48.447 92.3998 38.2008C90.4079 27.9545 85.01 18.6828 77.0831 11.8918C69.1562 5.10085 59.1659 1.18969 48.7354 0.793714Z" fill="url(#paint1_linear_218_231)"/>
    <defs>
    <linearGradient id="paint0_linear_218_231" x1="53.5001" y1="0.759766" x2="53.5001" y2="89.2419" gradientUnits="userSpaceOnUse">
    <stop stop-color="#3B82F6"/>
    <stop offset="1" stop-color="#14B8A6"/>
    </linearGradient>
    <linearGradient id="paint1_linear_218_231" x1="53.5001" y1="0.759766" x2="53.5001" y2="89.2419" gradientUnits="userSpaceOnUse">
    <stop stop-color="#3B82F6"/>
    <stop offset="1" stop-color="#14B8A6"/>
    </linearGradient>
    </defs>
</svg>