<svg width="2192" height="2192" viewBox="0 0 2192 2192" fill="none" xmlns="http://www.w3.org/2000/svg">
<path d="M451 1728.23C498.953 1714.81 533.48 1702.35 554.58 1690.84C575.681 1677.42 590.067 1660.17 597.739 1639.07C605.411 1617.98 609.248 1585.39 609.248 1541.29V761.878C609.248 694.77 603.493 645.877 591.984 615.2C582.393 584.522 558.417 557.679 520.054 534.67L485.527 514.538L497.036 477.149C560.335 457.976 638.98 442.637 732.969 431.132C826.958 417.712 913.275 411 991.92 411C1235.52 411 1420.63 471.397 1547.23 592.191C1675.74 711.069 1740 883.632 1740 1109.88C1740 1315.04 1680.54 1478.01 1561.61 1598.81C1444.6 1719.6 1284.44 1780 1081.11 1780H471.141L451 1728.23ZM1055.22 1722.48C1314.17 1722.48 1443.65 1518.28 1443.65 1109.88C1443.65 921.977 1406.24 771.466 1331.43 658.34C1258.54 543.298 1161.68 485.777 1040.83 485.777C990.96 485.777 952.598 493.446 925.743 508.786C898.888 524.125 885.462 546.174 885.462 574.935V1455.01C885.462 1545.12 898.888 1612.23 925.743 1656.33C954.516 1700.43 997.674 1722.48 1055.22 1722.48Z" fill="url(#paint0_linear_77_3)"/>
<defs>
<linearGradient id="paint0_linear_77_3" x1="3287.14" y1="72.3451" x2="3287.14" y2="2319.26" gradientUnits="userSpaceOnUse">
<stop stop-color="#1F8FFF"/>
<stop offset="1" stop-color="#1F8FFF"/>
</linearGradient>
</defs>
</svg>
