<svg width="6286" height="2192" viewBox="0 0 6286 2192" fill="none" xmlns="http://www.w3.org/2000/svg">
<path d="M451.178 1681.56C497.517 1668.61 530.881 1656.59 551.271 1645.49C571.661 1632.55 585.563 1615.9 592.977 1595.56C600.39 1575.21 604.098 1543.78 604.098 1501.24V749.445C604.098 684.715 598.537 637.554 587.416 607.964C578.147 578.374 554.979 552.481 517.907 530.288L484.542 510.869L495.664 474.805C556.832 456.312 632.829 441.516 723.654 430.419C814.479 417.474 897.89 411 973.888 411C1209.29 411 1388.16 469.257 1510.5 585.771C1634.69 700.436 1696.78 866.885 1696.78 1085.12C1696.78 1283.01 1639.32 1440.21 1524.4 1556.72C1411.33 1673.24 1256.56 1731.49 1060.08 1731.49H470.64L451.178 1681.56ZM1035.06 1676.01C1285.29 1676.01 1410.41 1479.05 1410.41 1085.12C1410.41 903.872 1374.26 758.693 1301.97 649.576C1231.53 538.611 1137.93 483.128 1021.15 483.128C972.96 483.128 935.89 490.525 909.939 505.321C883.988 520.117 871.014 541.385 871.014 569.126V1418.01C871.014 1504.94 883.988 1569.67 909.939 1612.2C937.743 1654.74 979.448 1676.01 1035.06 1676.01ZM1819.45 1284.86C1819.45 1138.75 1861.15 1023.16 1944.56 938.087C2029.82 853.014 2144.75 810.477 2289.33 810.477C2433.91 810.477 2548.84 853.937 2634.09 940.861C2719.35 1025.93 2761.99 1140.6 2761.99 1284.86C2761.99 1429.11 2719.35 1543.78 2634.09 1628.85C2548.84 1713.92 2433.91 1756.46 2289.33 1756.46C2144.75 1756.46 2029.82 1713.92 1944.56 1628.85C1861.15 1543.78 1819.45 1429.11 1819.45 1284.86ZM2481.17 1290.4C2481.17 1166.49 2463.56 1065.7 2428.35 988.022C2393.14 908.497 2348.65 868.734 2294.89 868.734C2235.57 868.734 2187.39 907.572 2150.31 985.248C2113.23 1061.07 2094.7 1160.94 2094.7 1284.86C2094.7 1410.62 2111.39 1510.49 2144.75 1584.46C2179.96 1658.44 2226.31 1695.43 2283.77 1695.43C2341.22 1695.43 2388.49 1658.44 2425.57 1584.46C2462.65 1508.64 2481.17 1410.62 2481.17 1290.4ZM3848.47 1648.27C3816.95 1687.11 3781.74 1714.85 3742.81 1731.49C3703.89 1748.14 3659.4 1756.46 3609.35 1756.46C3551.9 1756.46 3504.63 1742.59 3467.55 1714.85C3432.34 1687.11 3396.2 1638.1 3359.12 1567.82L3256.25 1379.18C3178.4 1479.05 3139.47 1549.32 3139.47 1590.01C3139.47 1615.9 3149.66 1644.57 3170.05 1676.01L3189.52 1703.75L3167.27 1731.49H2875.34L2858.65 1687.11L3222.88 1320.92L3031.04 968.603C3008.79 927.916 2981.92 907.572 2950.41 907.572C2924.45 907.572 2894.8 919.594 2861.43 943.635L2841.97 913.12C2875.34 876.131 2910.55 850.24 2947.63 835.444C2986.55 818.799 3030.1 810.477 3078.3 810.477C3137.62 810.477 3184.89 824.347 3220.1 852.089C3257.18 879.83 3292.39 928.839 3325.76 999.118L3420.29 1173.89C3490.73 1085.12 3525.94 1019.46 3525.94 976.925C3525.94 949.184 3516.67 919.594 3498.14 888.153L3475.9 863.185L3498.14 835.444H3792.86L3809.54 879.83L3453.65 1234.92L3653.84 1601.11C3676.08 1641.79 3702.95 1662.14 3734.47 1662.14C3762.27 1662.14 3791.92 1648.27 3823.44 1620.53L3848.47 1648.27ZM4866.67 1648.27C4835.15 1687.11 4799.94 1714.85 4761.01 1731.49C4722.09 1748.14 4677.6 1756.46 4627.56 1756.46C4570.1 1756.46 4522.84 1742.59 4485.76 1714.85C4450.55 1687.11 4414.4 1638.1 4377.32 1567.82L4274.45 1379.18C4196.6 1479.05 4157.67 1549.32 4157.67 1590.01C4157.67 1615.9 4167.86 1644.57 4188.26 1676.01L4207.72 1703.75L4185.48 1731.49H3893.54L3876.86 1687.11L4241.08 1320.92L4049.24 968.603C4027 927.916 4000.13 907.572 3968.61 907.572C3942.65 907.572 3913 919.594 3879.64 943.635L3860.17 913.12C3893.54 876.131 3928.75 850.24 3965.83 835.444C4004.75 818.799 4048.3 810.477 4096.5 810.477C4155.83 810.477 4203.09 824.347 4238.3 852.089C4275.38 879.83 4310.59 928.839 4343.96 999.118L4438.49 1173.89C4508.93 1085.12 4544.14 1019.46 4544.14 976.925C4544.14 949.184 4534.87 919.594 4516.34 888.153L4494.1 863.185L4516.34 835.444H4811.06L4827.74 879.83L4471.85 1234.92L4672.04 1601.11C4694.28 1641.79 4721.15 1662.14 4752.67 1662.14C4780.48 1662.14 4810.13 1648.27 4841.64 1620.53L4866.67 1648.27ZM5834.82 816.025V1731.49C5834.82 1877.6 5792.18 1990.42 5706.93 2069.94C5623.51 2151.32 5506.74 2192 5356.6 2192C5263.91 2192 5188.84 2174.42 5131.39 2139.29C5073.94 2104.16 5045.2 2057.91 5045.2 2000.58C5045.2 1950.65 5060.03 1909.96 5089.68 1878.52C5119.33 1848.93 5158.26 1834.14 5206.46 1834.14C5241.67 1834.14 5275.97 1841.53 5309.33 1856.33C5275.97 1889.62 5259.29 1934.94 5259.29 1992.26C5259.29 2032.94 5271.34 2066.23 5295.43 2092.13C5321.39 2118.03 5353.82 2130.97 5392.74 2130.97C5522.49 2130.97 5587.37 2025.55 5587.37 1814.72V1462.4C5563.28 1532.68 5520.64 1590.94 5459.47 1637.17C5400.15 1681.56 5336.2 1703.75 5267.63 1703.75C5186.06 1703.75 5125.83 1678.78 5086.9 1628.85C5047.98 1578.91 5028.52 1503.09 5028.52 1401.37V988.022C5028.52 962.129 5016.46 949.184 4992.37 949.184H4906.18L4897.84 918.668C4933.05 887.227 4979.4 861.337 5036.86 840.992C5094.31 820.648 5149.01 810.477 5200.9 810.477C5224.99 810.477 5243.54 816.025 5256.51 827.121C5271.34 838.218 5278.75 853.014 5278.75 871.508V1431.88C5278.75 1535.45 5311.18 1587.24 5376.06 1587.24C5439.08 1587.24 5490.06 1549.32 5528.98 1473.5C5567.91 1397.67 5587.37 1296.88 5587.37 1171.12C5587.37 1104.54 5581.81 1049.98 5570.69 1007.44C5559.57 964.903 5541.95 927.916 5517.86 896.475L5495.62 865.959L5515.08 840.992L5834.82 816.025Z" fill="url(#paint0_linear_78_13)"/>
<defs>
<linearGradient id="paint0_linear_78_13" x1="3191.84" y1="84.3446" x2="3191.84" y2="2251.64" gradientUnits="userSpaceOnUse">
<stop stop-color="#1F8FFF"/>
<stop offset="1" stop-color="#1F8FFF"/>
</linearGradient>
</defs>
</svg>
